# xmcd
#
# Track frame offsets: 
#        150
#        14061
#        29393
#        50749
#        69941
#        90767
#        108269
#        124329
#        141946
#        156257
#        170887
#        183568
#        200788
#        220319
#        230456
#
# Disc length: 3307 seconds
#
# Revision: 0
# Processed by: cddbd v1.5.2PL0 Copyright (c) Steve Scherf et al.
# Submitted via: ExactAudioCopyFreeDBPlugin 1.0
#
DISCID=df0ce90f
DTITLE=John Karl - Redneck Rich Hillbilly Happy
DYEAR=2007
DGENRE=Country
TTITLE0=Redneck Rich Hillbilly Happy
TTITLE1=Betcha Didn't Know That
TTITLE2=I'll Walk Away
TTITLE3=You Ought To
TTITLE4=That's What I Believe
TTITLE5=Could
TTITLE6=My Kinda People
TTITLE7=Is She Lonely Like Me
TTITLE8=I'm with You
TTITLE9=Life University
TTITLE10=Back to You Back to Us
TTITLE11=You Can Have Today
TTITLE12=Power Windows
TTITLE13=Girl Like You
TTITLE14=John Karl (Hidden Track)
EXTD=
EXTT0=
EXTT1=
EXTT2=
EXTT3=
EXTT4=
EXTT5=
EXTT6=
EXTT7=
EXTT8=
EXTT9=
EXTT10=
EXTT11=
EXTT12=
EXTT13=
EXTT14=
PLAYORDER=
